<svg width="33" height="32" viewBox="0 0 33 32" fill="none" xmlns="http://www.w3.org/2000/svg">
<mask id="mask0_82_3225" style="mask-type:alpha" maskUnits="userSpaceOnUse" x="0" y="0" width="33" height="32">
<rect x="0.428711" width="32" height="32" fill="#D9D9D9"/>
</mask>
<g mask="url(#mask0_82_3225)">
<path d="M7.09538 28C6.36204 28 5.73427 27.7389 5.21204 27.2167C4.68982 26.6944 4.42871 26.0667 4.42871 25.3333V6.66667C4.42871 5.93333 4.68982 5.30556 5.21204 4.78333C5.73427 4.26111 6.36204 4 7.09538 4H25.762C26.4954 4 27.1232 4.26111 27.6454 4.78333C28.1676 5.30556 28.4287 5.93333 28.4287 6.66667V25.3333C28.4287 26.0667 28.1676 26.6944 27.6454 27.2167C27.1232 27.7389 26.4954 28 25.762 28H7.09538ZM7.09538 25.3333H25.762V10.6667H7.09538V25.3333Z" fill="#1C1B1F"/>
</g>
</svg>
