<svg width="28" height="28" viewBox="0 0 28 28" fill="none" xmlns="http://www.w3.org/2000/svg">
<path d="M13.1716 22C11.0383 21.8888 9.23828 21.0666 7.77161 19.5333C6.30495 18 5.57161 16.1555 5.57161 14C5.57161 11.7777 6.34939 9.88885 7.90495 8.33329C9.4605 6.77774 11.3494 5.99996 13.5716 5.99996C15.7272 5.99996 17.5716 6.73329 19.1049 8.19996C20.6383 9.66663 21.4605 11.4666 21.5716 13.6L18.7716 12.7666C18.4827 11.5666 17.8605 10.5833 16.9049 9.81663C15.9494 9.04996 14.8383 8.66663 13.5716 8.66663C12.1049 8.66663 10.8494 9.18885 9.80495 10.2333C8.7605 11.2777 8.23828 12.5333 8.23828 14C8.23828 15.2666 8.62162 16.3777 9.38828 17.3333C10.1549 18.2888 11.1383 18.9111 12.3383 19.2L13.1716 22ZM14.7716 27.2666C14.5716 27.3111 14.3716 27.3333 14.1716 27.3333H13.5716C11.7272 27.3333 9.99384 26.9833 8.37161 26.2833C6.74939 25.5833 5.33828 24.6333 4.13828 23.4333C2.93828 22.2333 1.98828 20.8222 1.28828 19.2C0.588281 17.5777 0.238281 15.8444 0.238281 14C0.238281 12.1555 0.588281 10.4222 1.28828 8.79996C1.98828 7.17774 2.93828 5.76663 4.13828 4.56663C5.33828 3.36663 6.74939 2.41663 8.37161 1.71663C9.99384 1.01663 11.7272 0.666626 13.5716 0.666626C15.4161 0.666626 17.1494 1.01663 18.7716 1.71663C20.3938 2.41663 21.8049 3.36663 23.0049 4.56663C24.2049 5.76663 25.1549 7.17774 25.8549 8.79996C26.5549 10.4222 26.9049 12.1555 26.9049 14V14.6C26.9049 14.8 26.8827 15 26.8383 15.2L24.2383 14.4V14C24.2383 11.0222 23.2049 8.49996 21.1383 6.43329C19.0716 4.36663 16.5494 3.33329 13.5716 3.33329C10.5938 3.33329 8.07162 4.36663 6.00495 6.43329C3.93828 8.49996 2.90495 11.0222 2.90495 14C2.90495 16.9777 3.93828 19.5 6.00495 21.5666C8.07162 23.6333 10.5938 24.6666 13.5716 24.6666H13.9716L14.7716 27.2666ZM24.9383 28L19.2383 22.3L17.5716 27.3333L13.5716 14L26.9049 18L21.8716 19.6666L27.5716 25.3666L24.9383 28Z" fill="#1C1B1F"/>
</svg>
