<svg width="26" height="26" viewBox="0 0 32 33" fill="none" xmlns="http://www.w3.org/2000/svg">
<mask id="mask0_2226_1725" style="mask-type:alpha" maskUnits="userSpaceOnUse" x="0" y="0" width="32" height="33">
<rect y="0.894043" width="32" height="32" fill="#D9D9D9"/>
</mask>
<g mask="url(#mask0_2226_1725)">
<path d="M11.2003 23.5608L16.0003 18.7608L20.8003 23.5608L22.667 21.6941L17.867 16.8941L22.667 12.0941L20.8003 10.2275L16.0003 15.0275L11.2003 10.2275L9.33366 12.0941L14.1337 16.8941L9.33366 21.6941L11.2003 23.5608ZM16.0003 30.2275C14.1559 30.2275 12.4225 29.8775 10.8003 29.1775C9.1781 28.4775 7.76699 27.5275 6.56699 26.3275C5.36699 25.1275 4.41699 23.7163 3.71699 22.0941C3.01699 20.4719 2.66699 18.7386 2.66699 16.8941C2.66699 15.0497 3.01699 13.3163 3.71699 11.6941C4.41699 10.0719 5.36699 8.66079 6.56699 7.46079C7.76699 6.26079 9.1781 5.31079 10.8003 4.61079C12.4225 3.91079 14.1559 3.56079 16.0003 3.56079C17.8448 3.56079 19.5781 3.91079 21.2003 4.61079C22.8225 5.31079 24.2337 6.26079 25.4337 7.46079C26.6337 8.66079 27.5837 10.0719 28.2837 11.6941C28.9837 13.3163 29.3337 15.0497 29.3337 16.8941C29.3337 18.7386 28.9837 20.4719 28.2837 22.0941C27.5837 23.7163 26.6337 25.1275 25.4337 26.3275C24.2337 27.5275 22.8225 28.4775 21.2003 29.1775C19.5781 29.8775 17.8448 30.2275 16.0003 30.2275ZM16.0003 27.5608C18.9781 27.5608 21.5003 26.5275 23.567 24.4608C25.6337 22.3941 26.667 19.8719 26.667 16.8941C26.667 13.9163 25.6337 11.3941 23.567 9.32746C21.5003 7.26079 18.9781 6.22746 16.0003 6.22746C13.0225 6.22746 10.5003 7.26079 8.43366 9.32746C6.36699 11.3941 5.33366 13.9163 5.33366 16.8941C5.33366 19.8719 6.36699 22.3941 8.43366 24.4608C10.5003 26.5275 13.0225 27.5608 16.0003 27.5608Z" fill="#C0C2C4"/>
</g>
</svg>
