<svg width="20" height="20" viewBox="0 0 20 20" fill="none" xmlns="http://www.w3.org/2000/svg">
<mask id="mask0_2226_393" style="mask-type:alpha" maskUnits="userSpaceOnUse" x="0" y="0" width="20" height="20">
<rect width="20" height="20" fill="#D9D9D9"/>
</mask>
<g mask="url(#mask0_2226_393)">
<path d="M1.66699 17.5V2.5H10.0003V5.83333H18.3337V17.5H1.66699ZM3.33366 15.8333H5.00033V14.1667H3.33366V15.8333ZM3.33366 12.5H5.00033V10.8333H3.33366V12.5ZM3.33366 9.16667H5.00033V7.5H3.33366V9.16667ZM3.33366 5.83333H5.00033V4.16667H3.33366V5.83333ZM6.66699 15.8333H8.33366V14.1667H6.66699V15.8333ZM6.66699 12.5H8.33366V10.8333H6.66699V12.5ZM6.66699 9.16667H8.33366V7.5H6.66699V9.16667ZM6.66699 5.83333H8.33366V4.16667H6.66699V5.83333ZM10.0003 15.8333H16.667V7.5H10.0003V9.16667H11.667V10.8333H10.0003V12.5H11.667V14.1667H10.0003V15.8333ZM13.3337 10.8333V9.16667H15.0003V10.8333H13.3337ZM13.3337 14.1667V12.5H15.0003V14.1667H13.3337Z" fill="#1C1B1F"/>
</g>
</svg>
