<svg width="26" height="26" viewBox="0 0 18 18" fill="none" xmlns="http://www.w3.org/2000/svg">
<path d="M9.00033 13.1666C9.23644 13.1666 9.43435 13.0868 9.59408 12.927C9.7538 12.7673 9.83366 12.5694 9.83366 12.3333C9.83366 12.0972 9.7538 11.8993 9.59408 11.7395C9.43435 11.5798 9.23644 11.5 9.00033 11.5C8.76421 11.5 8.5663 11.5798 8.40658 11.7395C8.24685 11.8993 8.16699 12.0972 8.16699 12.3333C8.16699 12.5694 8.24685 12.7673 8.40658 12.927C8.5663 13.0868 8.76421 13.1666 9.00033 13.1666ZM8.16699 9.83329H9.83366V4.83329H8.16699V9.83329ZM9.00033 17.3333C7.84755 17.3333 6.76421 17.1145 5.75033 16.677C4.73644 16.2395 3.85449 15.6458 3.10449 14.8958C2.35449 14.1458 1.76074 13.2638 1.32324 12.25C0.885742 11.2361 0.666992 10.1527 0.666992 8.99996C0.666992 7.84718 0.885742 6.76385 1.32324 5.74996C1.76074 4.73607 2.35449 3.85413 3.10449 3.10413C3.85449 2.35413 4.73644 1.76038 5.75033 1.32288C6.76421 0.885376 7.84755 0.666626 9.00033 0.666626C10.1531 0.666626 11.2364 0.885376 12.2503 1.32288C13.2642 1.76038 14.1462 2.35413 14.8962 3.10413C15.6462 3.85413 16.2399 4.73607 16.6774 5.74996C17.1149 6.76385 17.3337 7.84718 17.3337 8.99996C17.3337 10.1527 17.1149 11.2361 16.6774 12.25C16.2399 13.2638 15.6462 14.1458 14.8962 14.8958C14.1462 15.6458 13.2642 16.2395 12.2503 16.677C11.2364 17.1145 10.1531 17.3333 9.00033 17.3333Z" fill="#EC3636"/>
</svg>
