<svg width="20" height="26" viewBox="0 0 20 26" fill="none" xmlns="http://www.w3.org/2000/svg">
<path d="M9.85775 16.6666C8.74664 16.6666 7.80219 16.2777 7.02441 15.5C6.24664 14.7222 5.85775 13.7777 5.85775 12.6666V4.66663C5.85775 3.55551 6.24664 2.61107 7.02441 1.83329C7.80219 1.05551 8.74664 0.666626 9.85775 0.666626C10.9689 0.666626 11.9133 1.05551 12.6911 1.83329C13.4689 2.61107 13.8577 3.55551 13.8577 4.66663V12.6666C13.8577 13.7777 13.4689 14.7222 12.6911 15.5C11.9133 16.2777 10.9689 16.6666 9.85775 16.6666ZM8.52441 26V21.9C6.2133 21.5888 4.30219 20.5555 2.79108 18.8C1.27997 17.0444 0.524414 15 0.524414 12.6666H3.19108C3.19108 14.5111 3.84108 16.0833 5.14108 17.3833C6.44108 18.6833 8.0133 19.3333 9.85775 19.3333C11.7022 19.3333 13.2744 18.6833 14.5744 17.3833C15.8744 16.0833 16.5244 14.5111 16.5244 12.6666H19.1911C19.1911 15 18.4355 17.0444 16.9244 18.8C15.4133 20.5555 13.5022 21.5888 11.1911 21.9V26H8.52441ZM9.85775 14C10.2355 14 10.5522 13.8722 10.8077 13.6166C11.0633 13.3611 11.1911 13.0444 11.1911 12.6666V4.66663C11.1911 4.28885 11.0633 3.97218 10.8077 3.71663C10.5522 3.46107 10.2355 3.33329 9.85775 3.33329C9.47997 3.33329 9.1633 3.46107 8.90775 3.71663C8.65219 3.97218 8.52441 4.28885 8.52441 4.66663V12.6666C8.52441 13.0444 8.65219 13.3611 8.90775 13.6166C9.1633 13.8722 9.47997 14 9.85775 14Z" fill="#1C1B1F"/>
</svg>
