<svg width="24" height="25" viewBox="0 0 24 25" fill="none" xmlns="http://www.w3.org/2000/svg">
<mask id="mask0_4_638" style="mask-type:alpha" maskUnits="userSpaceOnUse" x="0" y="0" width="24" height="25">
<rect y="0.894043" width="24" height="24" fill="#D9D9D9"/>
</mask>
<g mask="url(#mask0_4_638)">
<path d="M6 20.894C5.16667 20.894 4.45833 20.6024 3.875 20.019C3.29167 19.4357 3 18.7274 3 17.894H1V6.89404C1 6.34404 1.19583 5.87321 1.5875 5.48154C1.97917 5.08988 2.45 4.89404 3 4.89404H17V8.89404H20L23 12.894V17.894H21C21 18.7274 20.7083 19.4357 20.125 20.019C19.5417 20.6024 18.8333 20.894 18 20.894C17.1667 20.894 16.4583 20.6024 15.875 20.019C15.2917 19.4357 15 18.7274 15 17.894H9C9 18.7274 8.70833 19.4357 8.125 20.019C7.54167 20.6024 6.83333 20.894 6 20.894ZM6 18.894C6.28333 18.894 6.52083 18.7982 6.7125 18.6065C6.90417 18.4149 7 18.1774 7 17.894C7 17.6107 6.90417 17.3732 6.7125 17.1815C6.52083 16.9899 6.28333 16.894 6 16.894C5.71667 16.894 5.47917 16.9899 5.2875 17.1815C5.09583 17.3732 5 17.6107 5 17.894C5 18.1774 5.09583 18.4149 5.2875 18.6065C5.47917 18.7982 5.71667 18.894 6 18.894ZM3 15.894H3.8C4.08333 15.594 4.40833 15.3524 4.775 15.169C5.14167 14.9857 5.55 14.894 6 14.894C6.45 14.894 6.85833 14.9857 7.225 15.169C7.59167 15.3524 7.91667 15.594 8.2 15.894H15V6.89404H3V15.894ZM18 18.894C18.2833 18.894 18.5208 18.7982 18.7125 18.6065C18.9042 18.4149 19 18.1774 19 17.894C19 17.6107 18.9042 17.3732 18.7125 17.1815C18.5208 16.9899 18.2833 16.894 18 16.894C17.7167 16.894 17.4792 16.9899 17.2875 17.1815C17.0958 17.3732 17 17.6107 17 17.894C17 18.1774 17.0958 18.4149 17.2875 18.6065C17.4792 18.7982 17.7167 18.894 18 18.894ZM17 13.894H21.25L19 10.894H17V13.894Z" fill="#1C1B1F"/>
</g>
</svg>
