<svg width="28" height="22" viewBox="0 0 28 22" fill="none" xmlns="http://www.w3.org/2000/svg">
<path d="M3.33366 21.6667C2.60033 21.6667 1.97255 21.4056 1.45033 20.8834C0.928103 20.3612 0.666992 19.7334 0.666992 19V3.00004C0.666992 2.26671 0.928103 1.63893 1.45033 1.11671C1.97255 0.594485 2.60033 0.333374 3.33366 0.333374H24.667C25.4003 0.333374 26.0281 0.594485 26.5503 1.11671C27.0725 1.63893 27.3337 2.26671 27.3337 3.00004V19C27.3337 19.7334 27.0725 20.3612 26.5503 20.8834C26.0281 21.4056 25.4003 21.6667 24.667 21.6667H3.33366ZM14.0003 12.3334L3.33366 5.66671V19H24.667V5.66671L14.0003 12.3334ZM14.0003 9.66671L24.667 3.00004H3.33366L14.0003 9.66671ZM3.33366 5.66671V3.00004V19V5.66671Z" fill="#1C1B1F"/>
</svg>
