<svg width="33" height="32" viewBox="0 0 33 32" fill="none" xmlns="http://www.w3.org/2000/svg">
<mask id="mask0_82_3221" style="mask-type:alpha" maskUnits="userSpaceOnUse" x="0" y="0" width="33" height="32">
<rect x="0.142578" width="32" height="32" fill="#D9D9D9"/>
</mask>
<g mask="url(#mask0_82_3221)">
<path d="M8.1429 18.6666V13.3333H5.47624V26.6666H26.8096V13.3333H13.4762V10.6666H26.8096C27.5429 10.6666 28.1707 10.9277 28.6929 11.45C29.2151 11.9722 29.4762 12.6 29.4762 13.3333V26.6666C29.4762 27.4 29.2151 28.0277 28.6929 28.55C28.1707 29.0722 27.5429 29.3333 26.8096 29.3333H5.47624C4.7429 29.3333 4.11513 29.0722 3.5929 28.55C3.07068 28.0277 2.80957 27.4 2.80957 26.6666V13.3333C2.80957 12.6 3.07068 11.9722 3.5929 11.45C4.11513 10.9277 4.7429 10.6666 5.47624 10.6666H8.1429V2.66663H18.8096V7.99996H10.8096V18.6666H8.1429Z" fill="black"/>
</g>
</svg>
