<svg width="14" height="14" viewBox="0 0 14 14" fill="none" xmlns="http://www.w3.org/2000/svg">
<path d="M6.39967 11.5606H7.56634V10.7273C8.1219 10.6273 8.59967 10.4106 8.99967 10.0773C9.39967 9.74396 9.59967 9.24952 9.59967 8.59396C9.59967 8.12729 9.46634 7.69952 9.19967 7.31063C8.93301 6.92174 8.39967 6.58285 7.59967 6.29396C6.93301 6.07174 6.4719 5.87729 6.21634 5.71063C5.96079 5.54396 5.83301 5.31618 5.83301 5.02729C5.83301 4.73841 5.93579 4.51063 6.14134 4.34396C6.3469 4.17729 6.64412 4.09396 7.03301 4.09396C7.38856 4.09396 7.66634 4.18007 7.86634 4.35229C8.06634 4.52452 8.21078 4.73841 8.29967 4.99396L9.36634 4.56063C9.24412 4.17174 9.01912 3.83285 8.69134 3.54396C8.36356 3.25507 7.99967 3.09396 7.59967 3.06063V2.22729H6.43301V3.06063C5.87745 3.18285 5.44412 3.42729 5.13301 3.79396C4.8219 4.16063 4.66634 4.57174 4.66634 5.02729C4.66634 5.54952 4.81912 5.97174 5.12467 6.29396C5.43023 6.61618 5.91079 6.89396 6.56634 7.12729C7.26634 7.38285 7.75245 7.61063 8.02467 7.81063C8.2969 8.01063 8.43301 8.27174 8.43301 8.59396C8.43301 8.96063 8.30245 9.23007 8.04134 9.40229C7.78023 9.57452 7.46634 9.66063 7.09967 9.66063C6.73301 9.66063 6.40801 9.54674 6.12467 9.31896C5.84134 9.09118 5.63301 8.74952 5.49967 8.29396L4.39967 8.72729C4.55523 9.26063 4.7969 9.69118 5.12467 10.019C5.45245 10.3467 5.87745 10.5717 6.39967 10.694V11.5606ZM6.99967 13.5606C6.07745 13.5606 5.21079 13.3856 4.39967 13.0356C3.58856 12.6856 2.88301 12.2106 2.28301 11.6106C1.68301 11.0106 1.20801 10.3051 0.858008 9.49396C0.508008 8.68285 0.333008 7.81618 0.333008 6.89396C0.333008 5.97174 0.508008 5.10507 0.858008 4.29396C1.20801 3.48285 1.68301 2.77729 2.28301 2.17729C2.88301 1.57729 3.58856 1.10229 4.39967 0.752295C5.21079 0.402295 6.07745 0.227295 6.99967 0.227295C7.9219 0.227295 8.78856 0.402295 9.59967 0.752295C10.4108 1.10229 11.1163 1.57729 11.7163 2.17729C12.3163 2.77729 12.7913 3.48285 13.1413 4.29396C13.4913 5.10507 13.6663 5.97174 13.6663 6.89396C13.6663 7.81618 13.4913 8.68285 13.1413 9.49396C12.7913 10.3051 12.3163 11.0106 11.7163 11.6106C11.1163 12.2106 10.4108 12.6856 9.59967 13.0356C8.78856 13.3856 7.9219 13.5606 6.99967 13.5606ZM6.99967 12.2273C8.48856 12.2273 9.74967 11.7106 10.783 10.6773C11.8163 9.64396 12.333 8.38285 12.333 6.89396C12.333 5.40507 11.8163 4.14396 10.783 3.11063C9.74967 2.07729 8.48856 1.56063 6.99967 1.56063C5.51079 1.56063 4.24967 2.07729 3.21634 3.11063C2.18301 4.14396 1.66634 5.40507 1.66634 6.89396C1.66634 8.38285 2.18301 9.64396 3.21634 10.6773C4.24967 11.7106 5.51079 12.2273 6.99967 12.2273Z" fill="#FBA500"/>
</svg>
