<svg width="33" height="32" viewBox="0 0 33 32" fill="none" xmlns="http://www.w3.org/2000/svg">
<g opacity="0.4">
<mask id="mask0_82_3229" style="mask-type:alpha" maskUnits="userSpaceOnUse" x="0" y="0" width="33" height="32">
<rect x="0.713867" width="32" height="32" fill="#D9D9D9"/>
</mask>
<g mask="url(#mask0_82_3229)">
<path d="M26.0472 16C26.0472 13.4 25.1416 11.1944 23.3305 9.38333C21.5194 7.57222 19.3139 6.66667 16.7139 6.66667V4C18.3805 4 19.9416 4.31667 21.3972 4.95C22.8528 5.58333 24.1194 6.43889 25.1972 7.51667C26.275 8.59444 27.1305 9.86111 27.7639 11.3167C28.3972 12.7722 28.7139 14.3333 28.7139 16H26.0472ZM20.7139 16C20.7139 14.8889 20.325 13.9444 19.5472 13.1667C18.7694 12.3889 17.825 12 16.7139 12V9.33333C18.5583 9.33333 20.1305 9.98333 21.4305 11.2833C22.7305 12.5833 23.3805 14.1556 23.3805 16H20.7139ZM27.3139 28C24.5361 28 21.7916 27.3944 19.0805 26.1833C16.3694 24.9722 13.9028 23.2556 11.6805 21.0333C9.45831 18.8111 7.74165 16.3444 6.53053 13.6333C5.31942 10.9222 4.71387 8.17778 4.71387 5.4C4.71387 5 4.8472 4.66667 5.11387 4.4C5.38053 4.13333 5.71387 4 6.11387 4H11.5139C11.825 4 12.1028 4.10556 12.3472 4.31667C12.5916 4.52778 12.7361 4.77778 12.7805 5.06667L13.6472 9.73333C13.6916 10.0889 13.6805 10.3889 13.6139 10.6333C13.5472 10.8778 13.425 11.0889 13.2472 11.2667L10.0139 14.5333C10.4583 15.3556 10.9861 16.15 11.5972 16.9167C12.2083 17.6833 12.8805 18.4222 13.6139 19.1333C14.3028 19.8222 15.025 20.4611 15.7805 21.05C16.5361 21.6389 17.3361 22.1778 18.1805 22.6667L21.3139 19.5333C21.5139 19.3333 21.775 19.1833 22.0972 19.0833C22.4194 18.9833 22.7361 18.9556 23.0472 19L27.6472 19.9333C27.9583 20.0222 28.2139 20.1833 28.4139 20.4167C28.6139 20.65 28.7139 20.9111 28.7139 21.2V26.6C28.7139 27 28.5805 27.3333 28.3139 27.6C28.0472 27.8667 27.7139 28 27.3139 28ZM8.7472 12L10.9472 9.8L10.3805 6.66667H7.41387C7.52498 7.57778 7.68053 8.47778 7.88053 9.36667C8.08053 10.2556 8.36942 11.1333 8.7472 12ZM20.6805 23.9333C21.5472 24.3111 22.4305 24.6111 23.3305 24.8333C24.2305 25.0556 25.1361 25.2 26.0472 25.2667V22.3333L22.9139 21.7L20.6805 23.9333Z" fill="#1C1B1F"/>
</g>
</g>
</svg>
