<svg width="33" height="32" viewBox="0 0 33 32" fill="none" xmlns="http://www.w3.org/2000/svg">
<mask id="mask0_82_3235" style="mask-type:alpha" maskUnits="userSpaceOnUse" x="0" y="0" width="33" height="32">
<rect x="0.285156" width="32" height="32" fill="#D9D9D9"/>
</mask>
<g mask="url(#mask0_82_3235)">
<path d="M10.9521 14.6666C11.3299 14.6666 11.6466 14.5388 11.9021 14.2833C12.1577 14.0277 12.2855 13.7111 12.2855 13.3333C12.2855 12.9555 12.1577 12.6388 11.9021 12.3833C11.6466 12.1277 11.3299 12 10.9521 12C10.5744 12 10.2577 12.1277 10.0021 12.3833C9.74659 12.6388 9.61882 12.9555 9.61882 13.3333C9.61882 13.7111 9.74659 14.0277 10.0021 14.2833C10.2577 14.5388 10.5744 14.6666 10.9521 14.6666ZM16.2855 14.6666C16.6633 14.6666 16.9799 14.5388 17.2355 14.2833C17.491 14.0277 17.6188 13.7111 17.6188 13.3333C17.6188 12.9555 17.491 12.6388 17.2355 12.3833C16.9799 12.1277 16.6633 12 16.2855 12C15.9077 12 15.591 12.1277 15.3355 12.3833C15.0799 12.6388 14.9521 12.9555 14.9521 13.3333C14.9521 13.7111 15.0799 14.0277 15.3355 14.2833C15.591 14.5388 15.9077 14.6666 16.2855 14.6666ZM21.6188 14.6666C21.9966 14.6666 22.3133 14.5388 22.5688 14.2833C22.8244 14.0277 22.9521 13.7111 22.9521 13.3333C22.9521 12.9555 22.8244 12.6388 22.5688 12.3833C22.3133 12.1277 21.9966 12 21.6188 12C21.241 12 20.9244 12.1277 20.6688 12.3833C20.4133 12.6388 20.2855 12.9555 20.2855 13.3333C20.2855 13.7111 20.4133 14.0277 20.6688 14.2833C20.9244 14.5388 21.241 14.6666 21.6188 14.6666ZM2.95215 29.3333V5.33329C2.95215 4.59996 3.21326 3.97218 3.73548 3.44996C4.2577 2.92774 4.88548 2.66663 5.61882 2.66663H26.9521C27.6855 2.66663 28.3133 2.92774 28.8355 3.44996C29.3577 3.97218 29.6188 4.59996 29.6188 5.33329V21.3333C29.6188 22.0666 29.3577 22.6944 28.8355 23.2166C28.3133 23.7388 27.6855 24 26.9521 24H8.28548L2.95215 29.3333ZM7.15215 21.3333H26.9521V5.33329H5.61882V22.8333L7.15215 21.3333Z" fill="#1C1B1F"/>
</g>
</svg>
